<?xml version="1.0" ?><!DOCTYPE svg  PUBLIC '-//W3C//DTD SVG 1.1//EN'  'http://www.w3.org/Graphics/SVG/1.1/DTD/svg11.dtd'><svg enable-background="new 0 0 100 100" height="100px" id="Layer_1" version="1.1" viewBox="0 0 100 100" width="100px" xml:space="preserve" xmlns="http://www.w3.org/2000/svg" xmlns:xlink="http://www.w3.org/1999/xlink"><g><g><g><g/></g><g/></g></g><g><path d="M61,55.526V45h-2.269L76.098,3h-16l-13.1,32.154L33.898,3h-16l17.366,42H33v10.523   C26.949,59.885,22.998,66.988,22.998,75c0,13.233,10.766,24,24,24s24-10.767,24-24C70.998,66.989,67.049,59.888,61,55.526z M35,47   h1.131l0.867,2h4h12h4l0.867-2H59v7.229C55.467,52.18,51.369,51,46.998,51c-4.369,0-8.465,1.18-11.998,3.228V47z M46.998,95   c-11.027,0-20-8.972-20-20s8.973-20,20-20s20,8.972,20,20S58.025,95,46.998,95z" fill="#231F20"/><path d="M46.998,58c-9.374,0-17,7.626-17,17s7.626,17,17,17s17-7.626,17-17S56.372,58,46.998,58z M46.998,90   c-8.271,0-15-6.729-15-15s6.729-15,15-15s15,6.729,15,15S55.27,90,46.998,90z" fill="#231F20"/><polygon fill="#231F20" points="49.529,70.818 46.748,65.185 43.967,70.818 37.748,71.724 42.248,76.109 41.187,82.303    46.748,79.379 52.31,82.303 51.248,76.109 55.748,71.724  "/></g></svg>